<!DOCTYPE svg PUBLIC "-//W3C//DTD SVG 1.1//EN" "http://www.w3.org/Graphics/SVG/1.1/DTD/svg11.dtd">
<!-- Uploaded to: SVG Repo, www.svgrepo.com, Transformed by: SVG Repo Mixer Tools -->
<svg height="64px" width="64px" version="1.1" id="Layer_1" xmlns="http://www.w3.org/2000/svg" xmlns:xlink="http://www.w3.org/1999/xlink" viewBox="0 0 438 438" xml:space="preserve" fill="#000000">
<g id="SVGRepo_bgCarrier" stroke-width="0"/>
<g id="SVGRepo_tracerCarrier" stroke-linecap="round" stroke-linejoin="round"/>
<g id="SVGRepo_iconCarrier"> <g id="XMLID_49_"> <path id="XMLID_1459_" style="fill:#F6E27D;" d="M299.095,75.191c2.551-33.563,30.594-60.002,64.81-60.002 c35.898,0,65,29.102,65,65c0,34.217-26.439,62.259-60.002,64.811L299.095,75.191z"/> <path id="XMLID_50_" style="fill:#F8E99B;" d="M363.905,15.189c-5.171,0-10.197,0.613-15.021,1.754 c28.674,6.767,50.021,32.506,50.021,63.246c0,25.643-14.85,47.816-36.419,58.395l6.417,6.416 c33.563-2.552,60.002-30.594,60.002-64.811C428.905,44.291,399.804,15.189,363.905,15.189z"/> <path id="XMLID_1355_" style="fill:#D1E3FA;" d="M379.095,175c-1.251-30.078-10-100-10-100h-280c0,0-8.749,69.922-10,100 c-3.233,77.726,58.825,141.741,135,149.258V408h-45v30h120v-30h-45v-83.742C320.27,316.741,382.327,252.726,379.095,175z"/> <polygon id="XMLID_53_" style="fill:#EDEDED;" points="86.507,0 9.095,0 9.095,30 71.682,30 106.094,75 143.86,75 "/> <polygon id="XMLID_54_" style="fill:#FFFFFF;" points="221.01,175.889 143.86,75 106.094,75 197.179,194.111 "/> <path id="XMLID_55_" style="fill:#E9A440;" d="M109.095,175c-2.754,66.217,53.726,120,120,120s122.754-53.783,120-120H109.095z"/> <path id="XMLID_56_" style="fill:#E6972A;" d="M210.214,293.527c-37.421-23.179-62.995-67.594-61.12-118.527h-40 C106.606,234.822,152.466,284.49,210.214,293.527z"/> <path id="XMLID_57_" style="fill:#EFC27B;" d="M247.976,293.527c57.748-9.036,103.607-58.705,101.119-118.527h-40 C310.97,225.934,285.396,270.35,247.976,293.527z"/> </g> </g>
</svg>